<mxfile host="Electron" modified="2023-10-19T14:18:48.215Z" agent="Mozilla/5.0 (Macintosh; Intel Mac OS X 10_15_7) AppleWebKit/537.36 (KHTML, like Gecko) draw.io/22.0.3 Chrome/114.0.5735.289 Electron/25.8.4 Safari/537.36" etag="rCkb-m-CoN_Au7c_RADP" version="22.0.3" type="device">
  <diagram name="Page-1" id="60e7c9seVMMc95txWQ5j">
    <mxGraphModel dx="2280" dy="1716" grid="1" gridSize="10" guides="1" tooltips="1" connect="1" arrows="1" fold="1" page="1" pageScale="1" pageWidth="850" pageHeight="1100" math="0" shadow="0">
      <root>
        <mxCell id="0" />
        <mxCell id="1" parent="0" />
        <mxCell id="Q0x_nHgj1p7202QMA_Jk-19" value="" style="edgeStyle=orthogonalEdgeStyle;rounded=0;orthogonalLoop=1;jettySize=auto;html=1;" edge="1" parent="1" source="Q0x_nHgj1p7202QMA_Jk-2" target="Q0x_nHgj1p7202QMA_Jk-3">
          <mxGeometry relative="1" as="geometry" />
        </mxCell>
        <mxCell id="Q0x_nHgj1p7202QMA_Jk-2" value="creat Rre_List, List 3" style="rounded=1;whiteSpace=wrap;html=1;" vertex="1" parent="1">
          <mxGeometry x="290" y="150" width="120" height="60" as="geometry" />
        </mxCell>
        <mxCell id="Q0x_nHgj1p7202QMA_Jk-20" value="" style="edgeStyle=orthogonalEdgeStyle;rounded=0;orthogonalLoop=1;jettySize=auto;html=1;" edge="1" parent="1" source="Q0x_nHgj1p7202QMA_Jk-3" target="Q0x_nHgj1p7202QMA_Jk-15">
          <mxGeometry relative="1" as="geometry" />
        </mxCell>
        <mxCell id="Q0x_nHgj1p7202QMA_Jk-21" value="No" style="edgeLabel;html=1;align=center;verticalAlign=middle;resizable=0;points=[];" vertex="1" connectable="0" parent="Q0x_nHgj1p7202QMA_Jk-20">
          <mxGeometry x="-0.4333" y="-2" relative="1" as="geometry">
            <mxPoint x="2" y="-8" as="offset" />
          </mxGeometry>
        </mxCell>
        <mxCell id="Q0x_nHgj1p7202QMA_Jk-22" value="" style="edgeStyle=orthogonalEdgeStyle;rounded=0;orthogonalLoop=1;jettySize=auto;html=1;" edge="1" parent="1" source="Q0x_nHgj1p7202QMA_Jk-3" target="Q0x_nHgj1p7202QMA_Jk-5">
          <mxGeometry relative="1" as="geometry" />
        </mxCell>
        <mxCell id="Q0x_nHgj1p7202QMA_Jk-23" value="Yes" style="edgeLabel;html=1;align=center;verticalAlign=middle;resizable=0;points=[];" vertex="1" connectable="0" parent="Q0x_nHgj1p7202QMA_Jk-22">
          <mxGeometry x="-0.1292" y="2" relative="1" as="geometry">
            <mxPoint x="-53" y="2" as="offset" />
          </mxGeometry>
        </mxCell>
        <mxCell id="Q0x_nHgj1p7202QMA_Jk-3" value="List 1 and List 2" style="rhombus;whiteSpace=wrap;html=1;" vertex="1" parent="1">
          <mxGeometry x="240" y="280" width="220" height="210" as="geometry" />
        </mxCell>
        <mxCell id="Q0x_nHgj1p7202QMA_Jk-24" value="" style="edgeStyle=orthogonalEdgeStyle;rounded=0;orthogonalLoop=1;jettySize=auto;html=1;" edge="1" parent="1" source="Q0x_nHgj1p7202QMA_Jk-5" target="Q0x_nHgj1p7202QMA_Jk-6">
          <mxGeometry relative="1" as="geometry" />
        </mxCell>
        <mxCell id="Q0x_nHgj1p7202QMA_Jk-25" value="Yes" style="edgeLabel;html=1;align=center;verticalAlign=middle;resizable=0;points=[];" vertex="1" connectable="0" parent="Q0x_nHgj1p7202QMA_Jk-24">
          <mxGeometry x="0.1111" y="-2" relative="1" as="geometry">
            <mxPoint x="-23" y="-17" as="offset" />
          </mxGeometry>
        </mxCell>
        <mxCell id="Q0x_nHgj1p7202QMA_Jk-26" value="" style="edgeStyle=orthogonalEdgeStyle;rounded=0;orthogonalLoop=1;jettySize=auto;html=1;" edge="1" parent="1" source="Q0x_nHgj1p7202QMA_Jk-5" target="Q0x_nHgj1p7202QMA_Jk-8">
          <mxGeometry relative="1" as="geometry" />
        </mxCell>
        <mxCell id="Q0x_nHgj1p7202QMA_Jk-27" value="No" style="edgeLabel;html=1;align=center;verticalAlign=middle;resizable=0;points=[];" vertex="1" connectable="0" parent="Q0x_nHgj1p7202QMA_Jk-26">
          <mxGeometry x="-0.0733" y="1" relative="1" as="geometry">
            <mxPoint as="offset" />
          </mxGeometry>
        </mxCell>
        <mxCell id="Q0x_nHgj1p7202QMA_Jk-5" value="List1.val &amp;gt; List2.val" style="rhombus;whiteSpace=wrap;html=1;" vertex="1" parent="1">
          <mxGeometry x="650" y="280" width="220" height="210" as="geometry" />
        </mxCell>
        <mxCell id="Q0x_nHgj1p7202QMA_Jk-29" value="" style="edgeStyle=orthogonalEdgeStyle;rounded=0;orthogonalLoop=1;jettySize=auto;html=1;" edge="1" parent="1" source="Q0x_nHgj1p7202QMA_Jk-6" target="Q0x_nHgj1p7202QMA_Jk-7">
          <mxGeometry relative="1" as="geometry" />
        </mxCell>
        <mxCell id="Q0x_nHgj1p7202QMA_Jk-6" value="List3.next = ListNode(List 2.val)" style="rounded=1;whiteSpace=wrap;html=1;" vertex="1" parent="1">
          <mxGeometry x="930" y="355" width="120" height="60" as="geometry" />
        </mxCell>
        <mxCell id="Q0x_nHgj1p7202QMA_Jk-39" style="edgeStyle=orthogonalEdgeStyle;rounded=0;orthogonalLoop=1;jettySize=auto;html=1;" edge="1" parent="1" source="Q0x_nHgj1p7202QMA_Jk-7">
          <mxGeometry relative="1" as="geometry">
            <mxPoint x="350" y="240" as="targetPoint" />
            <Array as="points">
              <mxPoint x="1280" y="390" />
              <mxPoint x="1280" y="240" />
            </Array>
          </mxGeometry>
        </mxCell>
        <mxCell id="Q0x_nHgj1p7202QMA_Jk-7" value="List2 = List2.next" style="rounded=1;whiteSpace=wrap;html=1;" vertex="1" parent="1">
          <mxGeometry x="1120" y="355" width="120" height="60" as="geometry" />
        </mxCell>
        <mxCell id="Q0x_nHgj1p7202QMA_Jk-28" value="" style="edgeStyle=orthogonalEdgeStyle;rounded=0;orthogonalLoop=1;jettySize=auto;html=1;" edge="1" parent="1" source="Q0x_nHgj1p7202QMA_Jk-8" target="Q0x_nHgj1p7202QMA_Jk-9">
          <mxGeometry relative="1" as="geometry" />
        </mxCell>
        <mxCell id="Q0x_nHgj1p7202QMA_Jk-32" value="Yes" style="edgeLabel;html=1;align=center;verticalAlign=middle;resizable=0;points=[];" vertex="1" connectable="0" parent="Q0x_nHgj1p7202QMA_Jk-28">
          <mxGeometry x="-0.1667" y="2" relative="1" as="geometry">
            <mxPoint as="offset" />
          </mxGeometry>
        </mxCell>
        <mxCell id="Q0x_nHgj1p7202QMA_Jk-30" value="" style="edgeStyle=orthogonalEdgeStyle;rounded=0;orthogonalLoop=1;jettySize=auto;html=1;entryX=0;entryY=0.5;entryDx=0;entryDy=0;" edge="1" parent="1" source="Q0x_nHgj1p7202QMA_Jk-8" target="Q0x_nHgj1p7202QMA_Jk-12">
          <mxGeometry relative="1" as="geometry">
            <mxPoint x="760" y="800" as="targetPoint" />
            <Array as="points">
              <mxPoint x="760" y="905" />
            </Array>
          </mxGeometry>
        </mxCell>
        <mxCell id="Q0x_nHgj1p7202QMA_Jk-8" value="List1.val &amp;lt; List2.val" style="rhombus;whiteSpace=wrap;html=1;" vertex="1" parent="1">
          <mxGeometry x="650" y="540" width="220" height="210" as="geometry" />
        </mxCell>
        <mxCell id="Q0x_nHgj1p7202QMA_Jk-33" value="" style="edgeStyle=orthogonalEdgeStyle;rounded=0;orthogonalLoop=1;jettySize=auto;html=1;" edge="1" parent="1" source="Q0x_nHgj1p7202QMA_Jk-9" target="Q0x_nHgj1p7202QMA_Jk-10">
          <mxGeometry relative="1" as="geometry" />
        </mxCell>
        <mxCell id="Q0x_nHgj1p7202QMA_Jk-9" value="List3.next = ListNode(List 1.val)" style="rounded=1;whiteSpace=wrap;html=1;" vertex="1" parent="1">
          <mxGeometry x="930" y="615" width="120" height="60" as="geometry" />
        </mxCell>
        <mxCell id="Q0x_nHgj1p7202QMA_Jk-40" style="edgeStyle=orthogonalEdgeStyle;rounded=0;orthogonalLoop=1;jettySize=auto;html=1;" edge="1" parent="1" source="Q0x_nHgj1p7202QMA_Jk-10">
          <mxGeometry relative="1" as="geometry">
            <mxPoint x="1280" y="390" as="targetPoint" />
          </mxGeometry>
        </mxCell>
        <mxCell id="Q0x_nHgj1p7202QMA_Jk-10" value="List1 = List1.next" style="rounded=1;whiteSpace=wrap;html=1;" vertex="1" parent="1">
          <mxGeometry x="1120" y="615" width="120" height="60" as="geometry" />
        </mxCell>
        <mxCell id="Q0x_nHgj1p7202QMA_Jk-34" value="" style="edgeStyle=orthogonalEdgeStyle;rounded=0;orthogonalLoop=1;jettySize=auto;html=1;" edge="1" parent="1" source="Q0x_nHgj1p7202QMA_Jk-12" target="Q0x_nHgj1p7202QMA_Jk-13">
          <mxGeometry relative="1" as="geometry" />
        </mxCell>
        <mxCell id="Q0x_nHgj1p7202QMA_Jk-12" value="List3.next = ListNode(List1.cal)&lt;br&gt;List3.next.next = ListNode(List2.cal)" style="rounded=1;whiteSpace=wrap;html=1;" vertex="1" parent="1">
          <mxGeometry x="930" y="875" width="120" height="60" as="geometry" />
        </mxCell>
        <mxCell id="Q0x_nHgj1p7202QMA_Jk-41" style="edgeStyle=orthogonalEdgeStyle;rounded=0;orthogonalLoop=1;jettySize=auto;html=1;" edge="1" parent="1" source="Q0x_nHgj1p7202QMA_Jk-13">
          <mxGeometry relative="1" as="geometry">
            <mxPoint x="1280" y="650" as="targetPoint" />
          </mxGeometry>
        </mxCell>
        <mxCell id="Q0x_nHgj1p7202QMA_Jk-13" value="List1 = List1.next&lt;br&gt;List2 = List2.next" style="rounded=1;whiteSpace=wrap;html=1;" vertex="1" parent="1">
          <mxGeometry x="1120" y="875" width="120" height="60" as="geometry" />
        </mxCell>
        <mxCell id="Q0x_nHgj1p7202QMA_Jk-45" style="edgeStyle=orthogonalEdgeStyle;rounded=0;orthogonalLoop=1;jettySize=auto;html=1;" edge="1" parent="1" source="Q0x_nHgj1p7202QMA_Jk-14" target="Q0x_nHgj1p7202QMA_Jk-44">
          <mxGeometry relative="1" as="geometry">
            <Array as="points">
              <mxPoint x="700" y="715" />
              <mxPoint x="700" y="1010" />
            </Array>
          </mxGeometry>
        </mxCell>
        <mxCell id="Q0x_nHgj1p7202QMA_Jk-14" value="List3.next = List2" style="rounded=1;whiteSpace=wrap;html=1;" vertex="1" parent="1">
          <mxGeometry x="520" y="685" width="120" height="60" as="geometry" />
        </mxCell>
        <mxCell id="Q0x_nHgj1p7202QMA_Jk-35" value="" style="edgeStyle=orthogonalEdgeStyle;rounded=0;orthogonalLoop=1;jettySize=auto;html=1;" edge="1" parent="1" source="Q0x_nHgj1p7202QMA_Jk-15" target="Q0x_nHgj1p7202QMA_Jk-14">
          <mxGeometry relative="1" as="geometry" />
        </mxCell>
        <mxCell id="Q0x_nHgj1p7202QMA_Jk-42" value="Yes" style="edgeLabel;html=1;align=center;verticalAlign=middle;resizable=0;points=[];" vertex="1" connectable="0" parent="Q0x_nHgj1p7202QMA_Jk-35">
          <mxGeometry x="0.0351" y="-4" relative="1" as="geometry">
            <mxPoint x="-1" as="offset" />
          </mxGeometry>
        </mxCell>
        <mxCell id="Q0x_nHgj1p7202QMA_Jk-38" style="edgeStyle=orthogonalEdgeStyle;rounded=0;orthogonalLoop=1;jettySize=auto;html=1;entryX=0;entryY=0.5;entryDx=0;entryDy=0;" edge="1" parent="1" source="Q0x_nHgj1p7202QMA_Jk-15" target="Q0x_nHgj1p7202QMA_Jk-16">
          <mxGeometry relative="1" as="geometry">
            <Array as="points">
              <mxPoint x="350" y="880" />
            </Array>
          </mxGeometry>
        </mxCell>
        <mxCell id="Q0x_nHgj1p7202QMA_Jk-43" value="No" style="edgeLabel;html=1;align=center;verticalAlign=middle;resizable=0;points=[];" vertex="1" connectable="0" parent="Q0x_nHgj1p7202QMA_Jk-38">
          <mxGeometry x="-0.7378" relative="1" as="geometry">
            <mxPoint as="offset" />
          </mxGeometry>
        </mxCell>
        <mxCell id="Q0x_nHgj1p7202QMA_Jk-15" value="List 1 is Null" style="rhombus;whiteSpace=wrap;html=1;" vertex="1" parent="1">
          <mxGeometry x="240" y="610" width="220" height="210" as="geometry" />
        </mxCell>
        <mxCell id="Q0x_nHgj1p7202QMA_Jk-46" style="edgeStyle=orthogonalEdgeStyle;rounded=0;orthogonalLoop=1;jettySize=auto;html=1;" edge="1" parent="1" source="Q0x_nHgj1p7202QMA_Jk-16">
          <mxGeometry relative="1" as="geometry">
            <mxPoint x="700" y="880" as="targetPoint" />
          </mxGeometry>
        </mxCell>
        <mxCell id="Q0x_nHgj1p7202QMA_Jk-16" value="List3.next = List1" style="rounded=1;whiteSpace=wrap;html=1;" vertex="1" parent="1">
          <mxGeometry x="520" y="850" width="120" height="60" as="geometry" />
        </mxCell>
        <mxCell id="Q0x_nHgj1p7202QMA_Jk-18" value="" style="edgeStyle=orthogonalEdgeStyle;rounded=0;orthogonalLoop=1;jettySize=auto;html=1;" edge="1" parent="1" source="Q0x_nHgj1p7202QMA_Jk-17" target="Q0x_nHgj1p7202QMA_Jk-2">
          <mxGeometry relative="1" as="geometry" />
        </mxCell>
        <mxCell id="Q0x_nHgj1p7202QMA_Jk-17" value="List 1/2" style="shape=parallelogram;perimeter=parallelogramPerimeter;whiteSpace=wrap;html=1;fixedSize=1;" vertex="1" parent="1">
          <mxGeometry x="290" y="30" width="120" height="60" as="geometry" />
        </mxCell>
        <mxCell id="Q0x_nHgj1p7202QMA_Jk-44" value="Return Pre_List3.next" style="rounded=1;whiteSpace=wrap;html=1;" vertex="1" parent="1">
          <mxGeometry x="340" y="980" width="120" height="60" as="geometry" />
        </mxCell>
      </root>
    </mxGraphModel>
  </diagram>
</mxfile>
